<svg xmlns="http://www.w3.org/2000/svg" xmlns:xlink="http://www.w3.org/1999/xlink" version="1.1" x="0px" y="0px" viewBox="-429 231 100 125" enable-background="new -429 231 100 100" xml:space="preserve"><circle cx="-378.304" cy="250.094" r="10.933"/><path d="M-331.8,312.277c-0.513-2.155-3.471-4.07-4.752-4.112l-22.772-2.038l-5.855,8.157c5.785-0.673,11.758-1.31,11.682-1.061  l-12.363,2.012l-3.601,5.017c-0.664,0.911-1.733,1.455-2.861,1.455c-0.917,0-1.79-0.353-2.457-0.994  c-1.029-0.988-1.315-2.543-0.785-3.9l-0.041,0.007c-1.313,0.214-2.278,1.742-2.278,3.072c0,1.499,1.215,3.107,2.713,3.107h35.659  c4.587,0,8.011-3.04,8.011-7.627C-331.5,315.373-331.631,312.985-331.8,312.277z"/><path d="M-374.798,315.445l8.955-14.546l-0.906-3.559c-0.396-1.541-0.401-3.155-0.034-4.703l2.706-11.383l2.906,14.47  l-13.014,21.141c-0.573,0.931-0.506,2.179,0.282,2.936c1.015,0.975,2.617,0.806,3.418-0.294l15.727-21.912  c0.41-0.572,0.581-1.281,0.475-1.976l-4.068-26.683c-0.64-2.729-9.909-4.637-9.909-4.637c-6.557-2.076-13.593-2.051-20.124,0.063  c0,0-8.16,1.845-8.661,4.574l-4.068,26.683c-0.106,0.696,0.064,1.405,0.475,1.976l15.727,21.912c0.801,1.1,2.404,1.268,3.418,0.294  c0.789-0.757,0.855-2.005,0.282-2.936l-13.016-21.142l2.315-11.527l1.956,8.397c0.367,1.575,0.338,3.217-0.083,4.779l-0.514,1.904  l10.078,16.37C-378.606,315.662-375.438,315.525-374.798,315.445z"/><path d="M-383.074,321.707c-1.128,0-2.198-0.544-2.866-1.462l-3.12-4.347l-21.091-3.488c-0.177-0.352,11.982,1.159,20.177,2.215  l-6.637-9.247l-25.411,1.521c-1.714,0.055-3.766,2.505-4.374,5.408c-0.212,1.011-0.037,4.332-0.037,4.332  c0,4.587,2.856,6.361,7.443,6.361h35.66c1.058,0,1.964-0.907,2.411-1.846C-381.539,321.634-382.285,321.707-383.074,321.707z"/><g display="none"><circle display="inline" cx="-377.733" cy="250.602" r="10.794"/><path display="inline" d="M-336.514,307.932l-23.199-3.204l5.208-7.23c0.405-0.564,0.582-1.265,0.478-1.951l-4.013-26.344   c-0.539-3.586-7.135-4.024-9.776-4.578c-6.645-1.394-13.341-1.762-19.868,0.062c-1.886,0.527-7.9,1.71-8.552,4.516l-4.016,26.343   c-0.105,0.687,0.063,1.387,0.468,1.951l5.124,7.139l-26.233,3.296c-5.33,1.035-5.545,3.586-5.604,5.578   c-0.134,4.526,4.07,8.49,8.598,8.49h35.204c1.479,0,2.679-1.299,2.679-2.779c0-0.377-0.266-2.33-1.88-2.799   c-0.957-0.278-2.342-0.498-2.342-0.498l10.776-0.002l-1.607,0.486c-1.296,0.211-2.249,1.465-2.249,2.778   c0,1.479,1.199,2.813,2.679,2.813h35.204c4.528,0,8.295-3.978,7.909-8.49C-331.688,311.629-332.289,309.181-336.514,307.932z    M-389.318,297.277l-0.955,3.536l-3.179-5.165l2.286-11.38l1.931,8.291C-388.874,294.114-388.902,295.735-389.318,297.277z    M-364.981,302.411l-1.327-5.166c-0.391-1.521-0.405-3.115-0.042-4.643l2.666-11.222l2.866,14.269L-364.981,302.411z"/></g>
</svg>
