<svg xmlns="http://www.w3.org/2000/svg" xmlns:xlink="http://www.w3.org/1999/xlink" version="1.1" x="0px" y="0px" viewBox="-429 231 100 125" enable-background="new -429 231 100 100" xml:space="preserve"><g display="none"><g display="inline"><circle cx="-343.398" cy="309.07" r="11.898"/><path d="M-361.947,249.457c-1.875,0-3.59,1.585-3.785,3.45l-3.486,32.026l-1.112,15.327l-6.378,0.042    c0.475-1.226,0.708-2.555,0.621-3.927l-3.266-51.118c-0.145-2.375-2.084-4.227-4.463-4.227c-2.435,0-4.413,1.936-4.485,4.37    l-1.106,37.961l0.701,10.385l-24.897,2.517c-6.479,0.657-11.716,5.574-12.774,12.006c-0.309,1.879-0.028,3.811,0.759,5.545    c0,0,2.435,6.617,8.525,6.197c13.734-0.947,24.274,0.383,30.579,0.34c6.817-0.047,20.796-0.666,20.796-0.666    c4.029,0,7.719-2.806,7.719-6.835v-28.254V253.12C-358,251.097-359.924,249.457-361.947,249.457z"/></g></g><circle cx="-343.322" cy="309.041" r="11.822"/><path d="M-361.883,249.18c-1.88,0-3.562,1.589-3.757,3.458l-3.476,32.103l-1.77,24.662c-0.149-0.624-0.125-4.663-0.036-9.293  l-4.373,0.029c-0.959,2.87-3.108,5.265-6.048,6.442c0,0-19.713,6.993-19.945,6.646c0,0,18.431-7.161,20.651-8.381  c1.489-0.818,4.689-3.073,4.647-8.634l-3.27-51.241c-0.146-2.381-2.088-4.237-4.473-4.237c-2.441,0-4.423,1.941-4.495,4.38  l-1.108,38.052l0.702,10.41l-24.956,2.524c-6.495,0.656-11.813,5.575-12.805,12.033c-0.949,6.179,4.699,12.988,9.925,12.936  c12.104-0.122,51.14,0.197,51.14,0.197c4.039,0,7.33-4.501,7.33-8.539v-28.324v-31.552C-358,250.824-359.855,249.18-361.883,249.18z  "/>
</svg>
