<svg xmlns="http://www.w3.org/2000/svg" xmlns:xlink="http://www.w3.org/1999/xlink" version="1.1" x="0px" y="0px" viewBox="-199 201 100 125" enable-background="new -199 201 100 100" xml:space="preserve"><g display="none"><path display="inline" d="M-104.04,289.062l-6.629-48.549c-0.288-2.112-2.089-3.641-4.177-3.66   c0.272-0.169,0.525-0.377,0.736-0.639l0,0c0.986-1.221,0.838-3.002-0.336-4.044c0,0-27.409-24.625-28.541-24.806   c-1.709-0.274-3.344,0.804-3.765,2.483l-5.04,20.073l-13.639,7.354c-2.35,1.753-3.855,4.412-4.15,7.328l-1.476,14.629   c-0.41,4.058,0.52,8.139,2.646,11.62l2.885,4.723l-23.387,0.878c-2.608,0.195-4.791,2.345-5.087,3.419c0,0-0.007,4.12,1.288,4.9   c0.92,1.148,5.388,2.076,5.388,2.076l23.444,7.661c1.871,0.626,3.884-0.536,4.409-2.438c0.476-1.725-0.449-3.392-2.128-4.011   l-3.657-1.212l3.412-0.921l17.462,0.413l36.365,7.547C-105.537,293.747-103.704,291.522-104.04,289.062z M-136.276,224   c-0.002,0-0.004,0-0.006,0c-2.349,0-4.53,0.69-6.345,1.906c0.568-3.394,0.988-5.843,0.988-5.843S-139.406,222-136.276,224z    M-117.363,279.802l-22.718-8.228c-1.093-1.134-2.28-2.172-3.551-3.103l-5.423-3.974c-3.383-2.479-4.471-7.044-2.571-10.783   c0,0,5.793-6.921,6.18-9.935c0.052-0.403,0.115-0.864,0.185-1.366c2.09,2.663,5.331,4.38,8.979,4.38   c6.306,0,11.418-5.112,11.418-11.418c0-1.293-0.225-2.531-0.621-3.69c4.323,3.026,8.009,5.482,8.732,5.587   c-1.481,0.725-2.464,2.271-2.384,4.011L-117.363,279.802z"/></g><path d="M-104.04,289.062l-6.629-48.549c-0.288-2.112-2.089-3.641-4.177-3.66c0.272-0.169,0.525-0.377,0.736-0.639l0,0  c0.986-1.221,0.838-3.002-0.336-4.044c0,0-27.409-24.625-28.541-24.806c-1.709-0.274-3.344,0.804-3.765,2.483l-5.04,20.073  l-2.199,0.479c-2.069,0.451-4.018,1.339-5.716,2.605l-5.725,4.27c-2.35,1.753-3.855,4.412-4.15,7.328l-1.476,14.629  c-0.41,4.058,0.52,8.139,2.646,11.62l2.885,4.723l-23.387,0.878c-2.607,0.195-4.79,2.345-5.086,3.419c0,0-0.007,4.12,1.288,4.9  c0.92,1.148,5.388,2.076,5.388,2.076l23.444,7.661c1.871,0.626,3.884-0.536,4.409-2.438c0.476-1.725-0.449-3.392-2.128-4.011  l-3.657-1.212l3.412-0.921l17.462,0.413l36.365,7.547C-105.537,293.747-103.704,291.522-104.04,289.062z M-140.081,271.575  c-1.093-1.134-2.28-2.172-3.551-3.103l-5.423-3.974c-3.383-2.479-4.472-7.044-2.571-10.783c0,0,5.793-6.921,6.18-9.935  c0.765-5.964,3.808-23.748,3.808-23.748s22.96,16.961,24.885,17.242c-1.481,0.725-2.464,2.271-2.384,4.011l1.774,38.518  L-140.081,271.575z"/><path d="M-136.282,246.794c6.306,0,11.418-5.112,11.418-11.418c0-0.747-0.077-1.475-0.214-2.181  c-4.038-2.794-8.829-6.255-12.747-9.12c-1.31,0.177-2.548,0.573-3.678,1.155c-0.923,5.505-2.334,14.07-2.885,18.184  C-142.32,245.5-139.453,246.794-136.282,246.794z"/>
</svg>
