<svg xmlns="http://www.w3.org/2000/svg" xmlns:xlink="http://www.w3.org/1999/xlink" version="1.1" x="0px" y="0px" viewBox="-199 201 100 125" enable-background="new -199 201 100 100" xml:space="preserve"><circle cx="-170.217" cy="226.862" r="7.084"/><path d="M-154.735,255.935l-7.208-14.155c-0.188-0.369-1.991-3.714-1.991-3.714c-0.45-0.818-1.381-1.246-2.295-1.056l-3.41,0.709  c-2.905,0.808-7.242,7.781-7.242,7.781c-1.08,1.534-1.551,3.414-1.321,5.275l0.751,6.084c0.121,0.981,0.367,1.942,0.731,2.861  l3.175,8.015l-14.938,0.635c-6.676,0.412-5.873,5.342-4.795,6.12l10.107,7.293c1.039,0.75,2.489,0.515,3.239-0.524l0,0  c0.73-1.012,0.529-2.419-0.454-3.187l-1.331-1.039l10.392,0.11c0.605,0.006,2.171-2.357,2.621-3.186l6.772-12.485l-1.913-1.774  c-1.454-2.228-1.947-4.949-1.37-7.546l0.648-2.913c0,0,5.302,9.523,5.421,9.66l-8.426,15.534c-0.543,1.001-0.37,2.297,0.521,3.005  c1.139,0.904,2.754,0.56,3.449-0.64l9.197-15.873C-153.392,258.289-154.354,256.683-154.735,255.935z"/><path d="M-106.187,274.277l-30.746-1.858c-0.917-0.055-18.189-4.633-18.189-4.633s-0.545-1.277-0.834-1.745l-5.348,9.229  l19.819,3.355c0.91,0.154,35.119,0.301,35.119,0.301c1.285,0.021,2.344-1.004,2.365-2.289  C-103.98,275.392-104.944,274.352-106.187,274.277z"/><g display="none"><circle display="inline" cx="-170.04" cy="226.927" r="7.065"/><path display="inline" d="M-106.181,274.215c0,0-33.416-1.043-33.776-1.17l-15.028-5.303c0,0-0.966-2.069-1.617-2.816l2.332-4.026   c0.51-0.88,1.353-2.196-0.33-4.978l-9.175-17.821c-0.449-0.815-1.378-1.243-2.289-1.053l-3.401,0.707   c-1.323,0.275-2.493,1.043-3.271,2.148l-3.952,5.613c-1.077,1.529-1.546,3.405-1.317,5.261l0.762,6.169   c0.113,0.911,0.341,1.804,0.679,2.657l3.204,8.089l-14.898,0.633c-7.105,0.319-5.857,5.328-4.782,6.103l10.08,7.272   c3.54,2.782,6.749-0.635,3.997-2.749l-2.546-1.988c0,0,12.986-0.528,13.782-1.547c-0.067,0.979,0.492,1.954,1.515,2.328   c1.065,0.389,2.255-0.126,2.824-1.107l1.073-1.852c0.301,0.185,0.634,0.33,1.009,0.393l19.923,3.373   c0.907,0.154,35.025,0.3,35.025,0.3c1.282,0.021,2.338-1.001,2.359-2.283C-103.98,275.327-104.941,274.29-106.181,274.215z    M-165.051,252.15l0.646-2.905l5.09,9.183c0.091,0.164,0.198,0.315,0.316,0.452l-1.718,3.168l-2.259-1.284l-0.71-1.088   C-165.135,257.453-165.627,254.74-165.051,252.15z"/></g>
</svg>
