<svg xmlns="http://www.w3.org/2000/svg" xmlns:xlink="http://www.w3.org/1999/xlink" version="1.1" x="0px" y="0px" viewBox="-429 231 100 125" enable-background="new -429 231 100 100" xml:space="preserve"><circle cx="-416.238" cy="273.391" r="6.991"/><path d="M-332.778,293.71l-16.812-9.366c-0.698-0.371-1.453-0.622-2.233-0.744l-5.412-0.419l-17.498-9.07  c-2.083-1.266-4.527-1.806-6.95-1.536l-3.398,0.378c-1.577,0.175-3.173,0.071-4.714-0.307l-15.17-3.728  c-1.977-0.254-2.832,0.732-2.886,2.771l-0.204,20.444c-0.003,0.335-0.262,0.613-0.597,0.639l-16.621,1.291  c-0.709,0.055-1.227,0.856-1.227,1.567c0,0.752,0.638,1.571,1.39,1.571h19.514c1.157,0,2.136-0.855,2.291-2.002l2.04-15.068  l21.037,2.844l18.983,5.592l27.757,8.175C-331.226,297.359-330.765,294.716-332.778,293.71z"/>
</svg>
