<svg xmlns="http://www.w3.org/2000/svg" xmlns:xlink="http://www.w3.org/1999/xlink" version="1.1" x="0px" y="0px" viewBox="0 0 100 80" enable-background="new 0 0 100 100" xml:space="preserve"><g display="none"><circle display="inline" cx="86.917" cy="56.417" r="6.417"/><path display="inline" d="M79.887,60.715c-0.012-0.462-0.175-0.916-0.495-1.275c-1.334-2.512-6.799-5.273-7.234-5.479l-6.213-4.663   c-0.486-0.365-1.087-0.468-1.641-0.341c-0.919-0.87-1.748-1.829-2.438-2.913c-1.122-1.765-3.041-6.238-4.308-7.172   c-3.083-2.27-7.435-1.516-9.575,1.658L35.778,58.642l-23.367-5.256c-1.071-0.241-2.957,0.018-3.536,0.864   c-1.347,1.968-2.188,8.94-2.188,8.94c-0.265,1.118,0.426,2.239,1.544,2.504c1.118,0.265,2.239-0.426,2.504-1.544l1.741-5.448   c0.128-0.4,0.556-0.621,0.956-0.494l22.679,7.217c0.015,0.005,0.03,0.005,0.045,0.009c0,0,2.853,0.861,3.823-0.217l14.045-15.605   c0.333-0.37,0.929-0.313,1.185,0.114l6.449,10.718c0.955,1.588,3.113,2.732,5.498,3.518l0.786,2.196   c0.257,0.719,1.026,1.116,1.761,0.911c0.754-0.211,1.205-0.98,1.022-1.741l-0.114-0.476c1.602,0.309,3.1,0.471,4.198,0.509   C76.989,65.438,80.196,62.841,79.887,60.715z"/></g><g><circle cx="88.257" cy="54.427" r="6.743"/><path d="M75.792,52.475l-7.644-5.715c-0.882-0.662-2.085-0.502-2.857,0.285c-0.778,0.794-0.452,2.484-0.375,2.697l5.357,14.968   c0.274,0.765,1.092,1.188,1.875,0.969c0.802-0.224,1.283-1.043,1.088-1.853L71.283,55.7l6.724,6.538   c0.899,0.874,2.356,0.782,3.137-0.199c0,0,0.947-1.446,0.37-3.176C80.747,56.56,76.748,53.192,75.792,52.475z"/><path d="M63.914,50.101c-0.515-1.99-0.096-3.002,0.583-3.764c0.308-0.345,0.698-0.583,1.115-0.762   c-0.659-0.707-1.278-1.452-1.805-2.281c-1.195-1.879-3.237-6.642-4.586-7.635c-3.282-2.417-7.916-1.614-10.194,1.765L36.031,56.707   l-24.877-5.596c-1.141-0.257-3.149,0.019-3.765,0.92c-1.434,2.096-2.329,9.518-2.329,9.518c-0.282,1.19,0.453,2.384,1.643,2.666   c1.19,0.282,2.384-0.453,2.666-1.643l1.854-5.8c0.136-0.426,0.592-0.661,1.018-0.526l24.145,7.683   c0.016,0.005,0.032,0.005,0.048,0.01c0,0,3.037,0.916,4.07-0.231l14.952-16.613c0.354-0.394,0.989-0.333,1.262,0.121l6.865,11.411   c0.84,1.396,2.554,2.47,4.554,3.275C68.138,61.901,64.698,53.135,63.914,50.101z"/><path d="M77.265,63.001l-4.087-3.974l1.08,4.491c1.265,0.2,2.424,0.312,3.326,0.343c0.308,0.011,0.636-0.029,0.972-0.111   C78.078,63.604,77.633,63.359,77.265,63.001z"/></g>
</svg>
