<svg xmlns="http://www.w3.org/2000/svg" xmlns:xlink="http://www.w3.org/1999/xlink" version="1.1" x="0px" y="0px" viewBox="-429 231 100 125" enable-background="new -429 231 100 100" xml:space="preserve"><circle cx="-419.261" cy="291.648" r="7.239"/><path d="M-332.817,308.312l-14.838-7.521c-1.649-0.836-3.423-1.4-5.253-1.67l-5.163-1.37l-18.932-8.844  c-1.609-0.752-3.352-1.16-5.127-1.201c-2.488-0.057-6.058-0.195-7.618-0.519c-2.549-0.531-7.934-2.625-11.761-4.184l0.691-16.347  l-1.537-21.883c-0.055-0.777-0.729-1.362-1.505-1.308c-0.735,0.052-1.306,0.66-1.311,1.396l-0.147,20.317l-3.936,19.588  L-411,297.823v17.566c0,0.028-1.908,1.326-1.908,2.22c0,1.391,1.745,0.808,3.934,0.808s3.949,0.583,3.949-0.808  c0-0.803-0.61-1.51-1.531-1.971c0.001-0.001,2.259-16.831,2.259-16.831c3.749-0.104,8.025-0.169,10.072,0.429  c1.807,0.527,5.41,2.923,7.731,4.551c1.481,1.039,3.274,1.743,5.052,2.079l19.442,3.659v0.004l5.34,2.776  c1.559,0.795,3.17,1.362,4.89,1.684l15.583,2.564c0.98,0.184,1.95-0.553,2.4-1.553h-0.007c0.6-1,0.032-2.277-1.216-2.746  l-25.316-8.253l-5.073-1.899l5.619,1.487l25.24,8.836c1.33,0.507,2.824-0.327,3.021-1.803  C-331.39,309.663-331.953,308.75-332.817,308.312z"/>
</svg>
