<svg xmlns="http://www.w3.org/2000/svg" xmlns:xlink="http://www.w3.org/1999/xlink" version="1.1" x="0px" y="0px" viewBox="0 0 100 100" enable-background="new 0 0 100 100" xml:space="preserve"><circle cx="12.516" cy="32.634" r="7.516"/><path d="M92.433,68.607l-25.769-0.85l0.812-25.082c0.043-1.434-0.81-5.175-3.469-6.421c-1.693-0.969,0,0-0.007-0.004  c-23.048-13.305-28.937-10.502-38.07-7.861c-3.434,0.993-2.318,5.59-2.318,5.59l0.045,0.034l1.183,17.674  c0.014,0.213,0.711,21.408,0.711,21.408c0.033,0.834,0.789,1.494,1.711,1.494c0.921,0,1.678-0.66,1.711-1.494  c0,0,0.696-21.195,0.711-21.408l0.766-11.435l0.107,0.122c2.268,2.582,5.769,3.455,8.874,2.212l0.961-0.385  c0,0,6.473-2.24,17.428,4.43l0.722,24.06c0.055,1.834,1.338,3.338,3.043,3.766c0.438,0.284,0.965,0.442,1.528,0.423l29.32-0.967  C93.864,73.866,95,72.692,95,71.26C95,69.828,93.864,68.654,92.433,68.607z"/>
</svg>
