<svg xmlns="http://www.w3.org/2000/svg" xmlns:xlink="http://www.w3.org/1999/xlink" version="1.1" x="0px" y="0px" viewBox="40 -40 100 125" enable-background="new 40 -40 100 100" xml:space="preserve"><path d="M99.664-32.12c0,3.685-3.228,6.942-5.057,6.942c-1.83,0-5.057-3.259-5.057-6.942c0-3.683,2.264-5.38,5.057-5.38  S99.664-35.804,99.664-32.12z"/><path d="M109.484-11.372l-7.539-11.477c-0.893-1.239-6.739-0.994-7.463-0.994c-0.736,0-6.022-0.533-7.204,1.052l-7.716,11.468  c-0.621,0.921-0.459,2.233,0.361,2.931c0.487,0.414,1.1,0.519,1.649,0.339c0.177,0.038,12.432-1.153,13.347-1.701  c1.047,0.6,12.406,1.695,12.519,1.623c0.546,0.188,1.16,0.092,1.652-0.315C109.918-9.132,110.094-10.442,109.484-11.372z   M94.968-17.56c-1.277,0-2.067,5.21-2.067,5.21l-7.797,0.186l2.026-2.602c0.015,0.111,0.164,1.588,0.179,1.698l4.802-0.022  c0,0,0.355-5.201,2.857-5.143c2.319,0.054,2.739,5.361,2.786,5.364l3.784,0.022c0.021-0.162,0.267-1.741,0.288-1.903l2.425,2.8  l-7.493-0.216C96.758-12.167,96.375-17.56,94.968-17.56z"/><path d="M101.825,1.585c-0.173-2.203-0.781-4.464-0.632-9.199L95.168-8.45c-0.184-0.026-0.371-0.025-0.555,0.002L87.77-7.44  c0.139,4.094-0.458,6.422-0.733,9.026c-0.08,0.812-0.218,2.684-0.218,2.696C86.75,4.333,71.104,14.65,71.104,14.65  c-0.723,0.452-1.009,1.472-0.94,2.621c0.023,1.936,0.455,4.144,2.743,4.029l19.994-1.614l-0.236,11.595L91.516,54.73  c-0.058,1.433,0.886,2.646,2.092,2.763c1.206,0.103,2.323-0.929,2.46-2.363c0,0,3.022-23.254,3.035-23.305L101.86,5.82  C101.86,5.755,101.837,1.675,101.825,1.585z M93.013,14.118l-4.608-0.09l4.184-2.001c0.149,0.039,0.31,0.09,0.472,0.116  L93.013,14.118z"/><g display="none"><path display="inline" d="M99.637-31.622c0,3.665-3.21,6.905-5.03,6.905s-5.03-3.241-5.03-6.905s2.252-5.352,5.03-5.352   S99.637-35.287,99.637-31.622z"/><path display="inline" d="M110.362-11.046l-7.347-10.629c-1.512-2.194-7.574-1.775-8.331-1.775c-0.769,0-6.249-0.65-7.707,1.255   l-7.885,11.198c-0.649,0.916-0.48,2.221,0.377,2.915c0.509,0.412,1.15,0.516,1.723,0.337c0.185,0.037,6.43-0.652,6.43-0.652   c0.27,4.719-0.408,7.194-0.719,9.993c-0.084,0.807-0.228,2.67-0.228,2.682C86.603,4.329,70.252,14.59,70.252,14.59   c-0.756,0.45-1.055,1.464-0.982,2.607c0.024,1.926,0.476,4.122,2.866,4.007l20.895-1.606l-0.247,11.533l-1.199,23.323   c-0.061,1.425,0.926,2.632,2.187,2.748c1.26,0.102,2.427-0.924,2.571-2.351c0,0,3.158-23.129,3.171-23.181l2.882-25.865   c0-0.065-0.024-4.122-0.037-4.212c-0.194-2.343-0.906-4.751-0.617-10.166l5.908,0.775c0.197,0.026,1.787,0.066,2.301-0.339   C110.815-8.819,111-10.121,110.362-11.046z M85.869-13.023l1.132-1.4c0.066,0.465,0.126,0.913,0.18,1.348L85.869-13.023z    M93.149,14.307l-4.816-0.09l4.348-1.978c0.012-0.012,0.024-0.012,0.024-0.012c0.156,0.039,0.324,0.09,0.493,0.116L93.149,14.307z    M102.173-13.243c0.059-0.481,0.125-0.981,0.197-1.498l1.241,1.575L102.173-13.243z"/></g>
</svg>
